<svg width="16" height="18" viewBox="0 0 16 18" fill="none" xmlns="http://www.w3.org/2000/svg">
<path d="M5.5 8.16669H3.83333V9.83335H5.5V8.16669ZM8.83333 8.16669H7.16667V9.83335H8.83333V8.16669ZM12.1667 8.16669H10.5V9.83335H12.1667V8.16669ZM13.8333 2.33335H13V0.666687H11.3333V2.33335H4.66667V0.666687H3V2.33335H2.16667C1.24167 2.33335 0.508333 3.08335 0.508333 4.00002L0.5 15.6667C0.5 16.1087 0.675595 16.5326 0.988155 16.8452C1.30072 17.1578 1.72464 17.3334 2.16667 17.3334H13.8333C14.75 17.3334 15.5 16.5834 15.5 15.6667V4.00002C15.5 3.08335 14.75 2.33335 13.8333 2.33335ZM13.8333 15.6667H2.16667V6.50002H13.8333V15.6667Z" fill="#2B354E"/>
</svg>
