<svg width="14" height="14" viewBox="0 0 14 14" fill="none" xmlns="http://www.w3.org/2000/svg">
<path d="M7.41407 6.61523L2.42774 0.244141C2.36915 0.167969 2.27735 0.125 2.18165 0.125H0.671886C0.541026 0.125 0.468761 0.275391 0.548839 0.376953L5.73243 7L0.548839 13.623C0.530805 13.6461 0.519616 13.6737 0.51655 13.7028C0.513483 13.7319 0.518664 13.7613 0.5315 13.7875C0.544336 13.8138 0.564308 13.836 0.589134 13.8514C0.61396 13.8669 0.642636 13.8751 0.671886 13.875H2.18165C2.27735 13.875 2.36915 13.8301 2.42774 13.7559L7.41407 7.38672C7.59181 7.1582 7.59181 6.8418 7.41407 6.61523ZM13.3516 6.61523L8.36525 0.244141C8.30665 0.167969 8.21485 0.125 8.11915 0.125H6.60939C6.47853 0.125 6.40626 0.275391 6.48634 0.376953L11.6699 7L6.48634 13.623C6.46831 13.6461 6.45712 13.6737 6.45405 13.7028C6.45098 13.7319 6.45616 13.7613 6.469 13.7875C6.48184 13.8138 6.50181 13.836 6.52663 13.8514C6.55146 13.8669 6.58014 13.8751 6.60939 13.875H8.11915C8.21485 13.875 8.30665 13.8301 8.36525 13.7559L13.3516 7.38672C13.5293 7.1582 13.5293 6.8418 13.3516 6.61523Z" fill="#625FFF"/>
</svg>
